# xmcd CD database file
#
# Track frame offsets:
#	150
#	25249
#	56234
#	90793
#	117228
#	144016
#	163548
#	218480
#	252753
#
# Disc length: 3830 seconds
#
# Revision: 0
# Processed by: cddbd v1.5.1PL0 Copyright (c) Steve Scherf et al.
# Submitted via: CDex 1.51
#
DISCID=680ef409
DTITLE=Robben Ford - Live '97
DYEAR=1900
DGENRE=Blues
TTITLE0=Oasis
TTITLE1=Lady w/ Red Cello
TTITLE2=You Cut Me To The Bone
TTITLE3=Chevrolet
TTITLE4=Don't Let Me Be Misunderstood
TTITLE5=The Miller's Son
TTITLE6=Freedom
TTITLE7=Lovin' Cup
TTITLE8=You Got Me Knockin'
EXTD=
EXTT0=
EXTT1=
EXTT2=
EXTT3=
EXTT4=
EXTT5=
EXTT6=
EXTT7=
EXTT8=
PLAYORDER=
